<?xml version="1.0" encoding="UTF-8" standalone="no"?>
<svg
   xmlns:dc="http://purl.org/dc/elements/1.1/"
   xmlns:cc="http://creativecommons.org/ns#"
   xmlns:rdf="http://www.w3.org/1999/02/22-rdf-syntax-ns#"
   xmlns:svg="http://www.w3.org/2000/svg"
   xmlns="http://www.w3.org/2000/svg"
   xmlns:sodipodi="http://sodipodi.sourceforge.net/DTD/sodipodi-0.dtd"
   xmlns:inkscape="http://www.inkscape.org/namespaces/inkscape"
   width="793.70081"
   height="182"
   viewBox="0 0 210 48.15417"
   version="1.1"
   id="svg2244"
   inkscape:version="1.0.2-2 (e86c870879, 2021-01-15)"
   sodipodi:docname="sistemasUNL_2.svg">
  <defs
     id="defs2238" />
  <sodipodi:namedview
     id="base"
     pagecolor="#ffffff"
     bordercolor="#666666"
     borderopacity="1.0"
     inkscape:pageopacity="0.0"
     inkscape:pageshadow="2"
     inkscape:zoom="0.35"
     inkscape:cx="337.14286"
     inkscape:cy="717.14286"
     inkscape:document-units="mm"
     inkscape:current-layer="layer1"
     inkscape:document-rotation="0"
     showgrid="false"
     inkscape:window-width="1366"
     inkscape:window-height="715"
     inkscape:window-x="-8"
     inkscape:window-y="-8"
     inkscape:window-maximized="1"
     units="px" />
  <metadata
     id="metadata2241">
    <rdf:RDF>
      <cc:Work
         rdf:about="">
        <dc:format>image/svg+xml</dc:format>
        <dc:type
           rdf:resource="http://purl.org/dc/dcmitype/StillImage" />
        <dc:title></dc:title>
      </cc:Work>
    </rdf:RDF>
  </metadata>
  <g
     inkscape:label="Capa 1"
     inkscape:groupmode="layer"
     id="layer1">
    <g
       id="g851"
       transform="matrix(0.26458333,0,0,0.26458333,-4.2064716,-104.83459)">
      <path
         style="fill:#d81f25"
         d="m 149.869,404.924 c -31.992,4.68 -61.046,26.986 -69.208,53.32 -3.265,10.447 -3.156,10.773 4.244,10.773 h 6.203 l 1.849,-7.943 c 6.965,-28.729 34.388,-51.145 68.882,-56.15 l 6.53,-0.979 h -5.986 c -3.265,-10e-4 -8.923,0.434 -12.514,0.979 z"
         id="path825" />
      <path
         style="fill:#d81f25"
         d="m 193.99,441.939 c -45.813,19.588 -107.453,34.043 -128.455,29.146 -9.685,-2.176 -11.208,-6.855 -4.57,-14.256 2.176,-2.611 3.265,-4.135 2.394,-3.59 -21.111,14.799 -19.696,23.613 3.808,23.504 l 10.121,-0.109 1.197,8.054 c 1.197,8.487 4.897,19.695 6.746,20.893 0.653,0.327 4.245,0.327 8.053,-0.108 l 6.856,-0.652 -1.959,-3.483 c -2.938,-5.114 -6.747,-18.5 -6.313,-22.525 l 0.327,-3.481 14.691,-3.154 c 30.687,-6.313 63.726,-16.982 87.775,-29.17"
         id="path827" />
      <path
         style="fill:#188b40"
         d="m 237.501,465.502 c -0.702,-1.705 0,-0.881 -8.411,3.299 -47.009,22.198 -112.954,39.608 -149.3,39.501 -13.711,-0.108 -19.587,-1.414 -23.069,-5.114 -3.156,-3.373 -2.177,-6.856 4.244,-13.821 l 5.114,-5.55 -6.855,4.789 c -14.69,10.229 -18.281,18.499 -10.012,23.288 3.374,2.067 5.768,2.284 22.2,2.393 l 18.39,0.108 5.55,5.985 c 5.55,5.985 13.384,12.625 17.52,14.801 1.414,0.761 4.135,0.761 7.617,0.108 11.317,-2.068 11.208,-1.632 2.503,-7.509 -8.271,-5.55 -18.064,-14.69 -16.977,-15.887 0.436,-0.328 6.204,-1.852 12.95,-3.265 37.324,-8.054 80.308,-23.071 110.342,-38.523"
         id="path829" />
      <path
         style="fill:#188b40"
         d="m 198.948,512.654 c -2.396,1.307 -8.924,4.136 -14.691,6.42 -50.602,20.023 -105.664,28.186 -109.473,16.323 -0.544,-1.74 0.218,-3.481 2.83,-6.856 l 3.7,-4.569 -3.265,2.394 c -6.529,4.896 -8.052,6.421 -9.685,9.468 -1.958,3.918 -0.762,6.746 3.482,8.379 4.788,1.851 22.961,1.307 37.542,-1.197 l 13.603,-2.284 5.767,2.393 c 15.67,6.204 41.786,8.381 58.437,4.789 10.446,-2.177 24.048,-7.29 31.773,-11.971 7.509,-4.569 9.905,-7.073 3.048,-3.265 -13.93,7.727 -38.195,12.406 -55.281,10.555 -9.139,-0.978 -27.749,-5.44 -26.769,-6.419 0.218,-0.218 8.161,-3.047 17.738,-6.203 16.648,-5.658 40.924,-15.699 42.123,-17.657 0.251,-0.764 -0.809,-0.603 -0.879,-0.3 z"
         id="path831" />
      <g
         id="g835">
        <path
           style="fill:#d81f25"
           d="m 198.621,446.541 c -3.027,0 -5.489,-2.463 -5.489,-5.49 0,-3.025 2.462,-5.488 5.489,-5.488 3.026,0 5.489,2.463 5.489,5.488 0,3.027 -2.463,5.49 -5.489,5.49 z m 0,-8.83 c -1.842,0 -3.34,1.498 -3.34,3.34 0,1.842 1.498,3.342 3.34,3.342 1.842,0 3.34,-1.5 3.34,-3.342 0,-1.842 -1.498,-3.34 -3.34,-3.34 z"
           id="path833" />
      </g>
      <g
         id="g839">
        <path
           style="fill:#188b40"
           d="m 241.405,469.213 c -3.807,0 -6.904,-3.098 -6.904,-6.904 0,-3.806 3.097,-6.904 6.904,-6.904 3.807,0 6.905,3.098 6.905,6.904 0,3.806 -3.098,6.904 -6.905,6.904 z m 0,-11.231 c -2.385,0 -4.326,1.941 -4.326,4.326 0,2.385 1.941,4.326 4.326,4.326 2.385,0 4.326,-1.941 4.326,-4.326 0,-2.385 -1.94,-4.326 -4.326,-4.326 z"
           id="path837" />
      </g>
      <g
         id="g843">
        <path
           style="fill:#188b40"
           d="m 203.036,516.013 c -3.026,0 -5.489,-2.463 -5.489,-5.489 0,-3.027 2.462,-5.489 5.489,-5.489 3.027,0 5.489,2.462 5.489,5.489 0,3.026 -2.462,5.489 -5.489,5.489 z m 0,-8.83 c -1.842,0 -3.34,1.498 -3.34,3.341 0,1.842 1.498,3.34 3.34,3.34 1.842,0 3.341,-1.498 3.341,-3.34 -0.001,-1.843 -1.5,-3.341 -3.341,-3.341 z"
           id="path841" />
      </g>
      <path
         style="fill:#d81f25"
         d="m 91.107,469.018 -13.111,0.461 c 0,0 0.409,-5.422 3.803,-14.529 z"
         id="path845" />
      <path
         style="fill:#d81f25"
         d="m 100.14,504.82 -14.443,1.507 c 0,0 -1.533,-2.129 -1.638,-2.329 -0.105,-0.2 16.081,0.822 16.081,0.822 z"
         id="path847" />
      <path
         style="fill:#188b40"
         d="m 127.367,530.77 3.022,2.273 -14.54,3.581 c 0,0 -3.525,-1.684 -4.604,-2.403 -1.079,-0.721 16.122,-3.451 16.122,-3.451 z"
         id="path849" />
    </g>
    <text
       id="text859"
       style="font-style:normal;font-variant:normal;font-weight:normal;font-stretch:normal;font-size:10.5833px;font-family:'Century Gothic';-inkscape-font-specification:'Century Gothic, Normal';font-variant-ligatures:normal;font-variant-caps:normal;font-variant-numeric:normal;font-variant-east-asian:normal;fill:#f1faee;fill-opacity:1;stroke-width:0.264583"
       x="63.89402"
       y="17.863354"><tspan
         x="63.89402"
         y="17.863354"
         style="font-style:normal;font-variant:normal;font-weight:normal;font-stretch:normal;font-size:10.5833px;font-family:'Century Gothic';-inkscape-font-specification:'Century Gothic, Normal';font-variant-ligatures:normal;font-variant-caps:normal;font-variant-numeric:normal;font-variant-east-asian:normal;fill:#f1faee;fill-opacity:1;stroke-width:0.264583"
         id="tspan853">Carrera de Ingeniería</tspan><tspan
         x="63.89402"
         y="33.738346"
         style="font-style:normal;font-variant:normal;font-weight:normal;font-stretch:normal;font-size:10.5833px;font-family:'Century Gothic';-inkscape-font-specification:'Century Gothic, Normal';font-variant-ligatures:normal;font-variant-caps:normal;font-variant-numeric:normal;font-variant-east-asian:normal;fill:#f1faee;fill-opacity:1;stroke-width:0.264583"
         id="tspan855">en</tspan><tspan
         x="81.593323"
         y="33.738346"
         style="font-style:normal;font-variant:normal;font-weight:normal;font-stretch:normal;font-size:10.5833px;font-family:'Century Gothic';-inkscape-font-specification:'Century Gothic, Normal';font-variant-ligatures:normal;font-variant-caps:normal;font-variant-numeric:normal;font-variant-east-asian:normal;fill:#f1faee;fill-opacity:1;stroke-width:0.264583"
         id="tspan857">Sistemas/Computación</tspan></text>
  </g>
</svg>
